<svg width="126" height="126" viewBox="0 0 126 126" fill="none" xmlns="http://www.w3.org/2000/svg">
<circle cx="63" cy="63" r="63" fill="#323232"/>
<g clip-path="url(#clip0_1030_8)">
<path d="M85.683 58.021C85.683 61.7476 85.683 65.3934 85.683 69.1345C84.4466 69.2756 83.2207 69.4145 81.9947 69.5535C81.8661 69.568 81.7355 69.5721 81.6068 69.5846C79.6279 69.7712 79.6279 69.7712 78.8168 71.6833C80.161 73.193 81.5176 74.7173 82.8328 76.1959C80.1714 78.8566 77.5535 81.4738 74.8589 84.1676C74.0396 83.4646 73.1414 82.6952 72.2452 81.9279C71.8511 81.5899 71.4155 81.2913 71.0732 80.9097C70.5629 80.3394 70.0755 80.3186 69.3826 80.6193C68.6981 80.918 68.4035 81.2685 68.3932 82.042C68.3703 83.6907 68.2293 85.3394 68.1359 87.0212C64.3979 87.0212 60.7554 87.0212 57.0236 87.0212C56.8763 85.2917 56.7 83.5973 56.6025 81.8989C56.5693 81.3286 56.3287 81.1274 55.8619 80.8288C54.8911 80.2046 54.2833 80.5136 53.5532 81.2125C52.4538 82.2639 51.2527 83.2116 50.1263 84.1759C47.4608 81.4966 44.8367 78.8587 42.167 76.1752C43.1751 74.9018 44.1999 73.5352 45.3076 72.2411C45.7785 71.6895 45.793 71.2561 45.5607 70.5924C45.264 69.7422 44.8574 69.3772 43.9157 69.3585C42.3412 69.3253 40.7689 69.1138 39.1509 68.9749C39.1509 65.2814 39.1509 61.6377 39.1509 57.8779C40.0283 57.7949 40.9162 57.7057 41.8061 57.629C42.6586 57.5543 43.5112 57.4693 44.3637 57.4361C44.8326 57.4175 45.123 57.3055 45.2599 56.7974C45.3802 56.3578 45.6416 55.9575 45.8594 55.5013C44.565 53.9874 43.2706 52.4735 42.0446 51.0363C44.6417 48.4399 47.2181 45.8622 49.865 43.216C51.0556 44.201 52.3915 45.3002 53.7212 46.4055C54.4431 47.0048 55.613 46.9675 56.2167 46.2728C56.3639 46.1027 56.3868 45.8 56.4096 45.5532C56.561 43.8257 56.7 42.0982 56.8452 40.3271C60.55 40.3271 64.1947 40.3271 67.9492 40.3271C68.0384 41.2521 68.1359 42.1915 68.2189 43.133C68.2915 43.9584 68.3662 44.7859 68.4035 45.6133C68.4222 46.0198 68.5902 46.1878 68.9429 46.42C69.9966 47.1127 70.7538 46.8576 71.6063 46.0322C72.6249 45.0451 73.7865 44.2052 74.9979 43.2098C77.5266 45.9057 80.0386 48.5851 82.6399 51.3599C81.9761 52.1375 81.0592 53.2139 80.1403 54.2881C80.0054 54.4457 79.8685 54.6012 79.7316 54.7568C78.9454 55.661 78.8998 56.3889 79.6528 57.2972C79.8001 57.4755 80.1382 57.5481 80.3975 57.573C82.1503 57.7348 83.9011 57.8716 85.683 58.021ZM46.6248 50.9451C47.6163 52.0815 48.6017 53.245 49.6285 54.371C49.9562 54.7319 49.9832 54.9911 49.7799 55.4453C49.1535 56.8327 48.583 58.247 48.052 59.6738C47.8943 60.0948 47.6973 60.2109 47.2803 60.2441C45.7328 60.3664 44.1895 60.5324 42.64 60.6817C42.64 62.4237 42.64 64.1159 42.64 65.8123C44.2455 65.972 45.7951 66.1088 47.3384 66.2976C47.579 66.3266 47.9379 66.5485 47.9918 66.7476C48.4585 68.4875 49.0974 70.1424 50.2217 71.6148C49.0518 73.0707 47.9068 74.4974 46.8198 75.8496C48.0582 77.098 49.2385 78.2863 50.4644 79.5223C51.5763 78.5518 52.7379 77.5646 53.8643 76.5381C54.2232 76.2104 54.4866 76.1772 54.9409 76.3784C56.3556 77.0068 57.8118 77.5418 59.2328 78.1577C59.4444 78.249 59.6663 78.5725 59.6871 78.8048C59.826 80.4244 59.9132 82.0482 60.019 83.6969C61.7593 83.6969 63.4313 83.6969 65.1509 83.6969C65.3044 82.1166 65.4413 80.5716 65.6156 79.0308C65.6426 78.7965 65.7857 78.446 65.9641 78.3755C67.6381 77.7077 69.3308 77.0897 71.1209 76.4199C72.2992 77.4443 73.604 78.5787 74.7905 79.6094C76.0393 78.361 77.2362 77.1644 78.4517 75.9491C77.3378 74.7318 76.1533 73.4356 75.1411 72.3303C75.8463 70.5489 76.4749 68.9147 77.1532 67.3034C77.2528 67.0669 77.5826 66.816 77.8357 66.7766C79.4454 66.5361 81.0613 66.3536 82.7042 66.1482C82.7042 64.4166 82.7042 62.741 82.7042 61.0114C81.1214 60.8061 79.5615 60.578 77.9975 60.4141C77.5515 60.3685 77.4104 60.1798 77.2673 59.7961C76.7715 58.4689 76.282 57.1313 75.6659 55.858C75.3568 55.2192 75.3817 54.8335 75.8567 54.313C76.8068 53.2678 77.6801 52.1521 78.6011 51.0467C77.3482 49.8543 76.1679 48.7323 74.9502 47.5731C73.7637 48.6079 72.5917 49.5847 71.4757 50.6216C71.0732 50.9949 70.7849 50.9534 70.3306 50.7502C68.9885 50.1487 67.6319 49.5681 66.2462 49.0766C65.7587 48.9024 65.6218 48.6971 65.5845 48.2201C65.4642 46.6813 65.2941 45.1488 65.1426 43.6328C63.3732 43.6328 61.6992 43.6328 60.0107 43.6328C59.8551 45.2297 59.7244 46.7788 59.5336 48.3217C59.5024 48.5747 59.2556 48.9107 59.0233 49.0102C57.7455 49.5619 56.4386 50.0409 55.1484 50.5677C54.5696 50.8041 54.105 50.887 53.5552 50.3748C52.4434 49.3379 51.2403 48.4026 50.1097 47.4569C48.9356 48.6349 47.8196 49.7485 46.6248 50.9451Z" fill="white"/>
<path d="M58.4965 93.927C57.6875 92.7387 56.9635 91.679 56.196 90.5529C57.0921 89.881 57.9509 89.2381 58.8491 88.5662C60.855 91.4094 62.8236 94.1987 64.8212 97.0274C61.9773 99.0348 59.1872 101.003 56.3599 102.998C55.6857 102.102 55.053 101.258 54.3727 100.354C55.7355 99.4102 57.059 98.4936 58.5069 97.4899C49.2179 96.2186 41.6859 92.1228 35.7698 84.9246C36.2531 84.5264 36.6866 84.1697 37.1223 83.8151C37.5434 83.4729 37.9665 83.137 38.4291 82.7657C41.9078 87.0523 46.1748 90.1962 51.2984 92.1498C53.5761 93.0166 55.9118 93.6388 58.4965 93.927Z" fill="white"/>
<path d="M83.9199 90.2253C83.1835 89.3232 82.501 88.4833 81.7605 87.5771C84.8389 85.0677 87.3737 82.1271 89.2946 78.6742C91.203 75.242 92.4041 71.5817 92.9455 67.4963C91.7486 68.3072 90.6948 69.0226 89.5497 69.7982C88.8901 68.921 88.245 68.0604 87.5625 67.15C90.3898 65.155 93.1799 63.1848 96.0238 61.1774C98.0193 64.004 99.9879 66.7912 101.998 69.6365C101.116 70.3001 100.274 70.9326 99.3552 71.6232C98.401 70.2441 97.4655 68.894 96.3972 67.3511C95.2521 76.7372 91.1428 84.3004 83.9199 90.2253Z" fill="white"/>
<path d="M31.6563 59.9454C32.9943 59.0329 34.187 58.2221 35.4462 57.3656C36.1141 58.2573 36.7592 59.1159 37.4334 60.0159C34.5936 62.0192 31.8036 63.9894 28.97 65.9885C26.9724 63.1578 25.0059 60.3706 23 57.5294C23.8858 56.8637 24.7279 56.2291 25.6448 55.5386C26.5264 56.814 27.3852 58.0603 28.3477 59.4539C29.6442 50.2234 33.8136 42.7348 40.9059 36.7726C41.6402 37.6146 42.331 38.4068 43.0736 39.257C39.9413 41.8845 37.3442 44.9082 35.3736 48.4523C33.4112 51.9778 32.1894 55.7397 31.6563 59.9454Z" fill="white"/>
<path d="M89.2282 41.9116C88.3217 42.5959 87.4795 43.2305 86.5834 43.9045C81.2751 37.6084 74.5811 33.8423 66.2318 32.6706C66.7297 33.4048 67.1362 34.0062 67.5449 34.6076C67.9494 35.2028 68.356 35.7979 68.7957 36.4471C67.9058 37.1169 67.0636 37.7494 66.1509 38.4358C64.1616 35.6175 62.1951 32.8365 60.1768 29.9767C62.9937 27.9859 65.7755 26.022 68.6381 24C69.3039 24.8855 69.9449 25.7399 70.6315 26.6503C69.3288 27.5462 68.078 28.4069 66.682 29.3691C75.8652 30.6922 83.3017 34.8647 89.2282 41.9116Z" fill="white"/>
<path d="M53.8229 63.4025C53.9473 58.5726 57.8409 54.7464 62.5559 54.8232C67.3933 54.8999 71.2994 58.8754 71.1728 63.5933C71.0421 68.4336 67.1589 72.2515 62.4418 72.1748C57.6127 72.0981 53.7005 68.1163 53.8229 63.4025ZM67.7875 63.4959C67.7854 60.6568 65.3211 58.2014 62.475 58.2097C59.6726 58.2159 57.2186 60.663 57.2061 63.4648C57.1937 66.31 59.6456 68.7862 62.4813 68.7924C65.3231 68.7945 67.7895 66.3349 67.7875 63.4959Z" fill="white"/>
</g>
<defs>
<clipPath id="clip0_1030_8">
<rect width="79" height="79" fill="white" transform="translate(23 24)"/>
</clipPath>
</defs>
</svg>
