<svg width="126" height="126" viewBox="0 0 126 126" fill="none" xmlns="http://www.w3.org/2000/svg">
<circle cx="63" cy="63" r="63" fill="#323232"/>
<g clip-path="url(#clip0_1030_5)">
<path d="M52.0042 71.8255C50.2094 68.3308 48.3795 64.9688 46.7335 61.5139C44.4964 56.816 42.857 51.9057 42.0515 46.7322C40.9395 39.5769 42.0515 32.9392 46.983 27.4384C52.9432 20.7941 60.4401 18.4827 68.9416 20.9821C77.3731 23.4615 82.4184 29.4224 84.0097 38.1791C84.8984 43.0761 83.9813 47.8735 82.6329 52.5781C80.7746 59.072 77.7824 65.055 74.3809 70.8412C74.2168 71.1199 74.0635 71.4074 73.8315 71.8232C74.2299 71.8232 74.5145 71.8232 74.799 71.8232C80.1902 71.8232 85.5813 71.8232 90.9725 71.8232C92.1698 71.8232 92.3537 71.9493 92.7827 73.084C95.7727 81.0023 98.7648 88.9207 101.75 96.8413C102.337 98.3962 101.915 98.9978 100.251 98.9978C75.4031 98.9978 50.5552 98.9978 25.7073 98.9978C24.1094 98.9978 23.6716 98.3719 24.232 96.8833C27.2176 88.9649 30.2054 81.0444 33.1932 73.1238C33.6375 71.9427 33.8148 71.8255 35.0603 71.8255C40.423 71.8255 45.7879 71.8255 51.1506 71.8255C51.4461 71.8255 51.7416 71.8255 52.0042 71.8255ZM62.85 83.4619C63.1346 83.1478 63.2309 83.0549 63.3119 82.951C68.0004 76.8817 72.2227 70.505 75.6745 63.6328C78.8462 57.318 81.3087 50.7909 81.9675 43.6357C82.9963 32.4637 74.567 22.694 63.4695 22.3888C52.7725 22.0968 43.8945 30.9176 43.9689 41.7733C43.9952 45.7347 44.7919 49.5611 46.0024 53.3102C48.1693 60.0275 51.3782 66.2384 55.154 72.1462C57.5858 75.9461 60.2234 79.6133 62.85 83.4619ZM35.2704 74.1412C32.4468 81.6239 29.6297 89.0888 26.7667 96.6776C27.2045 96.6776 27.4956 96.6776 27.7867 96.6776C30.8226 96.6776 33.8608 96.598 36.8945 96.7041C39.2585 96.786 41.4933 96.4564 43.6778 95.5297C45.3107 94.8373 47.0136 94.3065 48.6837 93.7049C50.4217 93.0789 52.1574 92.4508 53.9107 91.8182C53.8516 91.67 53.8363 91.5837 53.7903 91.5218C49.4739 85.8485 45.1575 80.1729 40.8257 74.5106C40.6834 74.3248 40.388 74.1634 40.1603 74.1589C38.5493 74.128 36.9361 74.1412 35.2704 74.1412ZM92.1917 78.054C91.7714 76.9348 91.3424 75.8908 90.99 74.8225C90.8149 74.2894 90.5566 74.1235 89.9941 74.1258C84.3599 74.1501 78.7236 74.1501 73.0873 74.1258C72.5095 74.1235 72.2271 74.3558 71.9141 74.7959C69.3619 78.3835 66.7922 81.9601 64.1984 85.5189C63.3644 86.6602 62.6246 86.6602 61.795 85.5233C59.1859 81.9424 56.5986 78.3459 54.0355 74.7318C53.7247 74.2939 53.4336 74.1258 52.9082 74.1324C50.6384 74.1611 48.3663 74.1457 46.0965 74.1457C45.2888 74.1457 44.4811 74.1457 43.518 74.1457C43.7785 74.5195 43.9361 74.7628 44.1112 74.995C47.9964 80.0999 51.8926 85.1938 55.7537 90.3186C56.1718 90.8737 56.5111 90.9158 57.113 90.6968C66.6258 87.2574 76.1452 83.8401 85.6645 80.4184C87.8205 79.6376 89.9766 78.8546 92.1917 78.054ZM47.771 96.5029C47.7885 96.5382 47.8038 96.5714 47.8213 96.6068C60.4882 96.6068 73.1552 96.6068 85.9075 96.6068C85.7214 96.3392 85.6032 96.1556 85.4719 95.9831C83.0379 92.7848 80.5907 89.5975 78.1764 86.3837C77.7999 85.8839 77.5022 85.791 76.9025 86.0099C68.4491 89.0777 59.9848 92.1102 51.5227 95.1536C50.2706 95.6004 49.0208 96.0516 47.771 96.5029ZM93.0213 80.226C88.6217 81.8097 84.3315 83.3535 80.026 84.9018C80.1026 85.0611 80.1267 85.1429 80.1749 85.207C82.9744 88.8875 85.7696 92.5746 88.5976 96.2352C88.7902 96.4829 89.2302 96.6555 89.5563 96.6577C92.5375 96.6886 95.5209 96.6776 98.5022 96.6732C98.7035 96.6732 98.9049 96.6378 99.2048 96.609C97.1276 91.1126 95.0875 85.7047 93.0213 80.226Z" fill="white"/>
<path d="M62.9813 51.4102C57.5682 51.3925 53.2737 47.0042 53.3021 41.5188C53.3284 36.1286 57.7149 31.7757 63.0885 31.8089C68.4272 31.8421 72.7108 36.2569 72.6911 41.7069C72.6735 47.0506 68.2914 51.4279 62.9813 51.4102ZM63.0141 49.0855C67.0723 49.0899 70.3796 45.7611 70.3928 41.6604C70.4059 37.5022 67.1138 34.1402 63.0229 34.1335C58.9209 34.1269 55.5961 37.4734 55.6004 41.6073C55.607 45.7589 58.8991 49.0811 63.0141 49.0855Z" fill="white"/>
</g>
<defs>
<clipPath id="clip0_1030_5">
<rect width="78" height="79" fill="white" transform="translate(24 20)"/>
</clipPath>
</defs>
</svg>
