<svg width="126" height="126" viewBox="0 0 126 126" fill="none" xmlns="http://www.w3.org/2000/svg">
<circle cx="63" cy="63" r="63" fill="#323232"/>
<g clip-path="url(#clip0_1030_6)">
<path d="M59.8516 94.0001C53.474 94.0001 47.0964 94.0001 40.7188 94.0001C39.5934 93.3365 39.2479 92.7391 39.4335 91.7477C41.1434 82.6011 42.8565 73.4545 44.5663 64.3095C44.7568 63.2891 44.936 62.2654 45.1217 61.2353C43.1277 61.2353 41.2047 61.2353 39.264 61.2353C39.264 63.0598 39.2834 64.8342 39.2576 66.6087C39.2366 68.0747 37.7108 68.932 36.5031 68.1748C35.8879 67.7905 35.6264 67.2093 35.6296 66.4876C35.6377 64.739 35.6328 62.9904 35.6328 61.1966C34.2427 61.1352 32.712 61.5486 32 59.8549C32 59.5319 32 59.209 32 58.8861C32.4731 57.8689 33.2674 57.5234 34.3799 57.5363C37.9723 57.5815 41.5648 57.5541 45.1572 57.5541C45.3704 57.5541 45.5851 57.5541 45.8015 57.5541C45.8531 57.328 45.8935 57.1714 45.9226 57.0148C47.3498 49.3665 48.7836 41.7199 50.1899 34.0683C50.3627 33.1319 50.7195 32.4005 51.6188 32.0033C54.3636 32.0033 57.1084 32.0033 59.8532 32.0033C60.9027 32.4861 61.2062 33.3176 61.2014 34.4429C61.1691 41.9072 61.1852 49.373 61.1852 56.8372C61.1852 57.0697 61.1852 57.3006 61.1852 57.5218C62.443 57.5218 63.6055 57.5218 64.818 57.5218C64.818 57.2522 64.818 57.0148 64.818 56.7775C64.818 49.3326 64.8342 41.8878 64.8019 34.4429C64.797 33.3192 65.099 32.4861 66.1501 32.0049C68.8948 32.0049 71.6396 32.0049 74.3844 32.0049C75.0739 32.3569 75.5728 32.8364 75.7229 33.6566C76.9661 40.3959 78.2271 47.1319 79.4849 53.868C79.7126 55.0902 79.9515 56.3125 80.1889 57.5557C80.465 57.5557 80.6861 57.5557 80.9057 57.5557C84.4578 57.5557 88.0099 57.5848 91.562 57.5379C92.6873 57.5234 93.5205 57.8366 94.0016 58.8877C94.0016 59.2106 94.0016 59.5336 94.0016 59.8565C93.2896 61.576 91.7138 61.1175 90.3672 61.2127C90.3672 63.0614 90.3866 64.8358 90.3607 66.6103C90.3414 68.0279 88.9286 68.8836 87.7144 68.2345C87.025 67.8664 86.7311 67.2626 86.7344 66.4908C86.7408 64.7422 86.736 62.9936 86.736 61.2337C84.7565 61.2337 82.8384 61.2337 80.8686 61.2337C81.1947 62.9872 81.5096 64.6889 81.8277 66.3907C83.3809 74.7058 84.9373 83.0209 86.4857 91.336C86.7618 92.8166 86.5471 93.2557 85.2813 94.0049C78.9036 94.0049 72.526 94.0049 66.1484 94.0049C65.1022 93.5205 64.797 92.6906 64.8003 91.5653C64.8293 81.6792 64.8164 71.7915 64.8164 61.9054C64.8164 61.6729 64.8164 61.442 64.8164 61.2208C63.5586 61.2208 62.3978 61.2208 61.1836 61.2208C61.1836 61.4904 61.1836 61.7278 61.1836 61.9651C61.1836 71.8318 61.1723 81.6986 61.1997 91.5637C61.203 92.6842 60.8994 93.5173 59.8516 94.0001ZM48.8353 61.2047C47.0221 70.9164 45.2105 80.6136 43.3973 90.3269C48.1329 90.3269 52.8217 90.3269 57.5056 90.3269C57.5056 80.5958 57.5056 70.9035 57.5056 61.2047C54.6009 61.2047 51.7399 61.2047 48.8353 61.2047ZM82.6059 90.3447C80.7814 80.578 78.9715 70.8841 77.1664 61.216C74.2181 61.216 71.3603 61.216 68.4864 61.216C68.4864 70.9406 68.4864 80.6313 68.4864 90.3447C73.1977 90.3447 77.8735 90.3447 82.6059 90.3447ZM53.6031 35.6652C52.242 42.9582 50.8842 50.2271 49.5247 57.5153C52.242 57.5153 54.8722 57.5153 57.5153 57.5153C57.5153 50.2142 57.5153 42.9469 57.5153 35.6652C56.1994 35.6652 54.919 35.6652 53.6031 35.6652ZM68.4928 35.6555C68.4928 42.9776 68.4928 50.2497 68.4928 57.5073C71.1682 57.5073 73.7983 57.5073 76.4737 57.5073C75.1078 50.1932 73.7515 42.9308 72.392 35.6555C71.0713 35.6555 69.8039 35.6555 68.4928 35.6555Z" fill="white"/>
</g>
<defs>
<clipPath id="clip0_1030_6">
<rect width="62" height="62" fill="white" transform="translate(32 32)"/>
</clipPath>
</defs>
</svg>
