<svg width="126" height="126" viewBox="0 0 126 126" fill="none" xmlns="http://www.w3.org/2000/svg">
<circle cx="63" cy="63" r="63" fill="#323232"/>
<g clip-path="url(#clip0_1030_2)">
<path d="M59.1422 93.7607C61.0521 93.7607 62.8596 93.7607 64.7007 93.7607C64.7007 88.1858 64.7007 82.6463 64.7007 77.0043C64.3373 77.0043 63.9739 77.023 63.6124 77.0006C62.9491 76.9577 62.5186 76.5494 62.5075 75.8838C62.4832 74.3921 62.4832 72.8987 62.5075 71.4071C62.5186 70.7582 62.9062 70.3704 63.5491 70.2995C67.7361 69.826 71.9232 69.3617 76.1121 68.8956C78.4487 68.6345 80.7873 68.3866 83.1221 68.1087C84.4004 67.9577 84.8625 68.3306 84.8625 69.5985C84.8644 71.5339 84.8644 73.4692 84.8625 75.4046C84.8625 76.6818 84.5439 76.9969 83.2488 77.0081C83.0662 77.0099 82.8855 77.0081 82.6656 77.0081C82.6656 82.6035 82.6656 88.1429 82.6656 93.7402C85.593 93.7402 88.5353 93.7402 91.526 93.7402C91.526 92.6756 91.526 91.596 91.526 90.4624C89.7055 90.4624 87.898 90.4624 86.0365 90.4624C86.0365 89.7054 86.0365 88.9987 86.0365 88.2138C87.8533 88.2138 89.6775 88.2138 91.5372 88.2138C91.5372 87.4475 91.5372 86.7576 91.5372 85.9894C89.7167 85.9894 87.8924 85.9894 86.0253 85.9894C86.0253 85.2063 86.0253 84.4997 86.0253 83.7408C87.8589 83.7408 89.6663 83.7408 91.5241 83.7408C91.5241 82.9838 91.5241 82.2753 91.5241 81.5164C89.7129 81.5164 87.9036 81.5164 86.0383 81.5164C86.0383 80.7595 86.0383 80.0528 86.0383 79.2678C87.8458 79.2678 89.6719 79.2678 91.5353 79.2678C91.5353 78.5015 91.5353 77.8117 91.5353 77.0435C90.0968 77.0435 88.6433 77.0435 87.147 77.0435C87.147 76.2604 87.147 75.5537 87.147 74.7949C88.5986 74.7949 90.0353 74.7949 91.5223 74.7949C91.5223 74.0379 91.5223 73.3312 91.5223 72.5463C90.0744 72.5463 88.621 72.5463 87.1359 72.5463C87.1359 71.78 87.1359 71.0901 87.1359 70.3219C88.5874 70.3219 90.0409 70.3219 91.5335 70.3219C91.5335 69.5556 91.5335 68.8657 91.5335 68.0976C90.1024 68.0976 88.6489 68.0976 87.1489 68.0976C87.1489 67.3145 87.1489 66.6078 87.1489 65.849C88.593 65.849 90.0297 65.849 91.5186 65.849C91.5186 65.092 91.5186 64.3853 91.5186 63.6004C88.2148 63.6004 84.8979 63.6004 81.5457 63.6004C81.5457 62.834 81.5457 62.1442 81.5457 61.376C84.8532 61.376 88.17 61.376 91.5297 61.376C91.5297 60.22 91.5297 59.1404 91.5297 58.0255C87.0911 58.0255 82.673 58.0255 78.1786 58.0255C78.1786 60.9695 78.1786 63.9155 78.1786 66.9024C77.3959 66.9024 76.6897 66.9024 75.9164 66.9024C75.9164 66.0429 75.9164 65.2094 75.9164 64.376C75.9164 62.0211 75.9145 59.6662 75.9164 57.3114C75.9164 56.0845 76.2537 55.7526 77.5021 55.7526C79.9227 55.7508 82.3432 55.7526 84.8402 55.7526C84.8402 55.0105 84.8402 54.302 84.8402 53.5544C85.606 53.5544 86.2955 53.5544 87.0632 53.5544C87.0632 54.2424 87.0632 54.9509 87.0632 55.706C87.8458 55.706 88.552 55.706 89.3104 55.706C89.3104 55.005 89.3104 54.3132 89.3104 53.5693C90.067 53.5693 90.7732 53.5693 91.5577 53.5693C91.5577 54.2666 91.5577 54.9751 91.5577 55.7564C91.9751 55.7564 92.3179 55.7414 92.6589 55.7601C93.3577 55.7992 93.7602 56.2094 93.8031 56.9161C93.8161 57.1249 93.8068 57.3356 93.8068 57.5463C93.8068 69.3207 93.8068 81.0951 93.8068 92.8695C93.8068 93.1473 93.8068 93.4251 93.8068 93.7812C94.5428 93.7812 95.2491 93.7812 96 93.7812C96 94.5643 96 95.271 96 96.013C73.6692 96.013 51.3588 96.013 29 96.013C29 95.3101 29 94.6035 29 93.8185C29.7044 93.8185 30.4124 93.8185 31.1839 93.8185C31.1839 93.4698 31.1839 93.1958 31.1839 92.9217C31.1839 81.1007 31.1839 69.2797 31.1839 57.4587C31.1839 56.0379 31.469 55.7564 32.9075 55.7564C33.4181 55.7564 33.9287 55.7564 34.5156 55.7564C34.5156 54.2703 34.5156 52.816 34.5156 51.3207C35.2815 51.3207 35.9709 51.3207 36.7387 51.3207C36.7387 52.7508 36.7387 54.2051 36.7387 55.7079C37.5213 55.7079 38.2275 55.7079 38.9859 55.7079C38.9859 55.0105 38.9859 54.3188 38.9859 53.573C39.7424 53.573 40.4487 53.573 41.2331 53.573C41.2331 54.2666 41.2331 54.9751 41.2331 55.7564C42.1406 55.7564 42.9717 55.7564 43.8028 55.7564C45.4798 55.7564 47.1569 55.7508 48.8339 55.7582C49.7898 55.7619 50.1867 56.1628 50.1923 57.1249C50.1998 58.499 50.1942 59.8732 50.1942 61.2995C49.46 61.2995 48.7538 61.2995 47.9693 61.2995C47.9693 60.2256 47.9693 59.1442 47.9693 58.0292C43.1021 58.0292 38.3132 58.0292 33.4721 58.0292C33.4721 59.1069 33.4721 60.1864 33.4721 61.3443C36.789 61.3443 40.1039 61.3443 43.4524 61.3443C43.4524 62.1106 43.4524 62.8005 43.4524 63.5687C40.1319 63.5687 36.8169 63.5687 33.461 63.5687C33.461 64.335 33.461 65.0248 33.461 65.793C36.3865 65.793 39.3306 65.793 42.3195 65.793C42.3195 66.5761 42.3195 67.2828 42.3195 68.0416C39.3809 68.0416 36.4536 68.0416 33.474 68.0416C33.474 68.7986 33.474 69.5053 33.474 70.2902C35.2908 70.2902 37.1151 70.2902 38.9747 70.2902C38.9747 71.0565 38.9747 71.7464 38.9747 72.5146C37.1542 72.5146 35.3299 72.5146 33.4628 72.5146C33.4628 73.2977 33.4628 74.0043 33.4628 74.7632C35.6691 74.7632 37.8492 74.7632 40.0797 74.7632C40.0797 75.5202 40.0797 76.2287 40.0797 76.9876C37.8958 76.9876 35.7138 76.9876 33.4759 76.9876C33.4759 77.7445 33.4759 78.4512 33.4759 79.2362C35.2833 79.2362 37.1095 79.2362 38.971 79.2362C38.971 80.0025 38.971 80.6923 38.971 81.4605C37.1598 81.4605 35.3337 81.4605 33.4647 81.4605C33.4647 82.2436 33.4647 82.9503 33.4647 83.7091C35.2889 83.7091 37.0983 83.7091 38.9579 83.7091C38.9579 84.4661 38.9579 85.1728 38.9579 85.9577C37.1374 85.9577 35.3113 85.9577 33.4535 85.9577C33.4535 86.724 33.4535 87.4139 33.4535 88.1821C35.6504 88.1821 37.8492 88.1821 40.0872 88.1821C40.0872 88.9484 40.0872 89.6383 40.0872 90.4064C37.9107 90.4064 35.7119 90.4064 33.4665 90.4064C33.4665 91.5624 33.4665 92.642 33.4665 93.7626C36.7741 93.7626 40.0741 93.7626 43.4823 93.7626C43.4823 93.509 43.4823 93.2424 43.4823 92.9739C43.4823 86.0267 43.4823 79.0777 43.4823 72.1305C43.4823 70.5438 43.6965 70.3257 45.286 70.2977C45.3997 70.2958 45.5133 70.2865 45.7183 70.2734C45.7183 69.9434 45.7165 69.6265 45.7183 69.3076C45.7258 67.9298 46.3127 66.8782 47.5239 66.2219C47.8668 66.0373 47.9786 65.8359 47.9618 65.4667C47.9339 64.8664 47.9544 64.2641 47.9544 63.6227C48.6979 63.6227 49.3873 63.6227 50.1905 63.6227C50.1905 64.2417 50.1718 64.8831 50.2016 65.5245C50.211 65.7222 50.2948 66.0186 50.4383 66.0932C51.9849 66.8912 52.5271 68.1982 52.4302 69.8558C52.4228 69.9695 52.4414 70.0851 52.4507 70.2977C53.2166 70.2977 53.9769 70.2977 54.7353 70.2977C55.7135 70.2977 56.6918 70.2958 57.6701 70.2977C58.7639 70.3014 59.1347 70.6706 59.1347 71.7688C59.1366 78.8092 59.1366 85.8496 59.1366 92.89C59.1422 93.1622 59.1422 93.4381 59.1422 93.7607ZM67.0262 77.0342C67.0262 82.6631 67.0262 88.2175 67.0262 93.7588C71.4983 93.7588 75.9127 93.7588 80.3457 93.7588C80.3457 88.1672 80.3457 82.6128 80.3457 77.0342C75.8866 77.0342 71.4704 77.0342 67.0262 77.0342ZM45.7724 72.5612C45.7724 79.665 45.7724 86.711 45.7724 93.7383C49.5085 93.7383 53.1961 93.7383 56.8688 93.7383C56.8688 86.6513 56.8688 79.6221 56.8688 72.5612C53.1607 72.5612 49.4898 72.5612 45.7724 72.5612ZM82.5724 74.7464C82.5724 73.2679 82.5724 71.8639 82.5724 70.4301C76.6077 71.0976 70.6989 71.7576 64.7808 72.4195C64.7808 73.225 64.7808 73.9782 64.7808 74.7483C70.7306 74.7464 76.6338 74.7464 82.5724 74.7464ZM48.0159 70.2362C48.7687 70.2362 49.4731 70.2362 50.17 70.2362C50.2501 68.6662 49.9184 68.0398 49.0538 68.0584C48.1761 68.0789 47.8444 68.7669 48.0159 70.2362Z" fill="white"/>
<path d="M60.2565 52.3574C59.4813 52.3574 58.7918 52.3574 58.0521 52.3574C58.0521 48.6563 58.0521 44.9814 58.0521 41.2505C53.9414 41.2505 49.883 41.2505 45.7463 41.2505C45.7463 45.2927 45.7463 49.3555 45.7463 53.4612C44.9655 53.4612 44.2593 53.4612 43.486 53.4612C43.486 53.1871 43.486 52.9372 43.486 52.6874C43.486 48.7011 43.486 44.7166 43.486 40.7303C43.486 39.2032 43.717 38.9739 45.273 38.9534C45.3885 38.9515 45.504 38.9422 45.722 38.9329C45.722 38.0323 45.722 37.1318 45.722 36.2331C45.722 34.7489 45.9717 34.4972 47.4606 34.4767C47.5966 34.4748 47.7345 34.4636 47.9581 34.4543C47.9581 33.4661 47.9562 32.4947 47.9581 31.5252C47.96 30.3449 48.3084 30.0019 49.5084 30.0019C51.1389 30 52.7694 29.9963 54.398 30.0037C55.393 30.0075 55.7769 30.4009 55.7843 31.4114C55.7899 32.4089 55.7862 33.4065 55.7862 34.4786C56.1626 34.4786 56.4812 34.4692 56.798 34.4804C57.5806 34.5084 58.0036 34.9167 58.0167 35.7017C58.0353 36.7495 58.0204 37.7974 58.0204 38.9571C58.4061 38.9571 58.7657 38.9403 59.1254 38.9608C59.7925 39 60.2434 39.4009 60.2453 40.0609C60.2639 44.1367 60.2565 48.2126 60.2565 52.3574ZM47.9916 38.9068C50.6134 38.9068 53.1793 38.9068 55.7322 38.9068C55.7322 38.1516 55.7322 37.445 55.7322 36.7514C53.1253 36.7514 50.5743 36.7514 47.9916 36.7514C47.9916 37.4767 47.9916 38.1666 47.9916 38.9068ZM50.2258 34.4413C51.3662 34.4413 52.4265 34.4413 53.5073 34.4413C53.5073 33.6992 53.5073 32.9944 53.5073 32.2878C52.3874 32.2878 51.3103 32.2878 50.2258 32.2878C50.2258 33.028 50.2258 33.716 50.2258 34.4413Z" fill="white"/>
<path d="M66.9629 38.3679C66.9629 42.3057 66.9629 46.1895 66.9629 50.1106C66.2175 50.1106 65.5281 50.1106 64.7324 50.1106C64.7324 49.8962 64.7324 49.6743 64.7324 49.4524C64.7324 45.3505 64.7305 41.2486 64.7324 37.1448C64.7324 35.7725 65.3417 35.353 66.648 35.8154C67.848 36.2405 69.0499 36.6637 70.3226 37.1131C70.3226 35.4965 70.3207 33.9621 70.3226 32.4276C70.3244 31.087 70.9244 30.6507 72.1748 31.0777C72.6518 31.2399 73.1307 31.4002 73.6636 31.5811C73.6636 31.0404 73.6636 30.5761 73.6636 30.0018C74.0568 30.0018 74.4164 30.0018 74.7779 30.0018C75.1245 30.0018 75.4711 30.0018 75.9127 30.0018C75.9127 30.66 75.9388 31.2809 75.9034 31.898C75.8811 32.2989 76.0264 32.4779 76.4028 32.5898C77.0028 32.7688 77.5898 33 78.1786 33.2181C79.0917 33.5556 79.2668 33.8017 79.2687 34.7582C79.2706 36.5985 79.2687 38.4387 79.2687 40.3126C80.1184 40.6184 80.9457 40.9148 81.7731 41.2169C82.2762 41.3996 82.6153 41.7389 82.6153 42.2964C82.6228 45.9993 82.6191 49.7023 82.6191 53.4555C81.8793 53.4555 81.1731 53.4555 80.3867 53.4555C80.3867 53.202 80.3867 52.954 80.3867 52.7041C80.3867 49.6967 80.3811 46.6911 80.3923 43.6836C80.3942 43.2958 80.3308 43.059 79.906 42.9098C75.7599 41.4518 71.6232 39.9658 67.4828 38.4928C67.3393 38.4406 67.1809 38.4182 66.9629 38.3679ZM77.0326 39.5164C77.0326 38.1106 77.0382 36.7887 77.0214 35.4667C77.0196 35.3418 76.8985 35.1479 76.7885 35.1069C75.4059 34.5979 74.0139 34.1112 72.5829 33.6022C72.5829 35.0994 72.5829 36.4941 72.5829 37.9279C74.0456 38.4518 75.5028 38.9701 77.0326 39.5164Z" fill="white"/>
<path d="M69.2287 64.7004C66.5733 64.7004 64.0205 64.7004 61.4229 64.7004C61.4229 63.9416 61.4229 63.2349 61.4229 62.4761C63.9981 62.4761 66.5528 62.4761 69.156 62.4761C69.156 61.7191 69.156 61.0106 69.156 60.2517C67.7193 60.2517 66.2845 60.2517 64.7919 60.2517C64.7919 59.4947 64.7919 58.7881 64.7919 58.0031C66.223 58.0031 67.6765 58.0031 69.1672 58.0031C69.1672 56.6122 69.1672 55.2977 69.1672 53.9254C67.0914 54.5612 65.0491 55.184 63.0087 55.8104C61.1863 56.3717 59.3713 56.9571 57.5396 57.4866C57.0477 57.6283 56.8893 57.8297 56.893 58.3425C56.9191 61.3033 56.9061 64.2641 56.9061 67.225C56.9061 67.4767 56.9061 67.7265 56.9061 68.0174C56.1589 68.0174 55.4694 68.0174 54.67 68.0174C54.67 67.8086 54.67 67.5867 54.67 67.3667C54.67 63.9863 54.6682 60.606 54.67 57.2237C54.67 56.2467 54.8545 55.9932 55.7676 55.7098C60.3888 54.2797 65.01 52.8515 69.6312 51.427C70.8312 51.0578 71.4405 51.496 71.4405 52.7247C71.4442 57.2704 71.4424 61.8179 71.4424 66.3636C71.4424 66.5239 71.4424 66.6824 71.4424 66.8894C70.6933 66.8894 69.9871 66.8894 69.2287 66.8894C69.2287 66.1846 69.2287 65.4929 69.2287 64.7004Z" fill="white"/>
<path d="M49.1265 43.4636C49.8662 43.4636 50.5557 43.4636 51.2787 43.4636C51.2787 44.1833 51.2787 44.8713 51.2787 45.6153C50.5855 45.6153 49.8811 45.6153 49.1265 45.6153C49.1265 44.9273 49.1265 44.2225 49.1265 43.4636Z" fill="white"/>
<path d="M69.2306 45.6153C69.2306 44.8956 69.2306 44.2076 69.2306 43.4767C69.9592 43.4767 70.6635 43.4767 71.4052 43.4767C71.4052 44.1815 71.4052 44.8713 71.4052 45.6153C70.7157 45.6153 70.0114 45.6153 69.2306 45.6153Z" fill="white"/>
<path d="M75.963 45.7048C76.7084 45.7048 77.396 45.7048 78.119 45.7048C78.119 46.4264 78.119 47.1144 78.119 47.8565C77.4202 47.8565 76.7158 47.8565 75.963 47.8565C75.963 47.1629 75.963 46.4581 75.963 45.7048Z" fill="white"/>
<path d="M55.7452 50.1124C55.0334 50.1124 54.3458 50.1124 53.6023 50.1124C53.6023 49.4151 53.6023 48.7103 53.6023 47.9552C54.2936 47.9552 54.998 47.9552 55.7452 47.9552C55.7452 48.6674 55.7452 49.3722 55.7452 50.1124Z" fill="white"/>
<path d="M47.9991 51.302C48.711 51.302 49.3986 51.302 50.142 51.302C50.142 51.9993 50.142 52.7041 50.142 53.4592C49.4507 53.4592 48.7464 53.4592 47.9991 53.4592C47.9991 52.747 47.9991 52.0422 47.9991 51.302Z" fill="white"/>
<path d="M75.8866 51.302C75.8866 52.0329 75.8866 52.7209 75.8866 53.4574C75.1711 53.4574 74.4667 53.4574 73.7195 53.4574C73.7195 52.747 73.7195 52.0422 73.7195 51.302C74.4313 51.302 75.1189 51.302 75.8866 51.302Z" fill="white"/>
<path d="M72.5027 81.4698C71.7722 81.4698 71.1014 81.4698 70.3784 81.4698C70.3784 80.752 70.3784 80.0472 70.3784 79.2939C71.0716 79.2939 71.776 79.2939 72.5027 79.2939C72.5027 80.023 72.5027 80.7445 72.5027 81.4698Z" fill="white"/>
<path d="M74.8356 79.2772C75.5586 79.2772 76.248 79.2772 76.9859 79.2772C76.9859 79.9857 76.9859 80.6905 76.9859 81.4401C76.2834 81.4401 75.5791 81.4401 74.8356 81.4401C74.8356 80.7371 74.8356 80.0473 74.8356 79.2772Z" fill="white"/>
<path d="M72.5139 85.9279C71.7685 85.9279 71.0809 85.9279 70.3579 85.9279C70.3579 85.2063 70.3579 84.5183 70.3579 83.7762C71.0567 83.7762 71.761 83.7762 72.5139 83.7762C72.5139 84.4698 72.5139 85.1746 72.5139 85.9279Z" fill="white"/>
<path d="M74.8431 83.7371C75.5773 83.7371 76.2481 83.7371 76.9767 83.7371C76.9767 84.4474 76.9767 85.1522 76.9767 85.9111C76.2966 85.9111 75.5922 85.9111 74.8431 85.9111C74.8431 85.21 74.8431 84.5052 74.8431 83.7371Z" fill="white"/>
<path d="M70.3541 90.4009C70.3541 89.6756 70.3541 88.9857 70.3541 88.2493C71.0641 88.2493 71.7684 88.2493 72.5175 88.2493C72.5175 88.9541 72.5175 89.6588 72.5175 90.4009C71.8113 90.4009 71.1237 90.4009 70.3541 90.4009Z" fill="white"/>
<path d="M74.8356 88.2324C75.5548 88.2324 76.2424 88.2324 76.9822 88.2324C76.9822 88.9372 76.9822 89.642 76.9822 90.3934C76.2834 90.3934 75.5791 90.3934 74.8356 90.3934C74.8356 89.6923 74.8356 89.0043 74.8356 88.2324Z" fill="white"/>
<path d="M50.1476 90.4046C49.4078 90.4046 48.7184 90.4046 47.9935 90.4046C47.9935 85.5811 47.9935 80.7912 47.9935 75.9435C48.6867 75.9435 49.3929 75.9435 50.1476 75.9435C50.1476 80.7371 50.1476 85.5439 50.1476 90.4046Z" fill="white"/>
<path d="M52.4806 75.921C53.2166 75.921 53.9061 75.921 54.6309 75.921C54.6309 80.7426 54.6309 85.5344 54.6309 90.3822C53.9434 90.3822 53.2353 90.3822 52.4806 90.3822C52.4806 85.5922 52.4806 80.7855 52.4806 75.921Z" fill="white"/>
</g>
<defs>
<clipPath id="clip0_1030_2">
<rect width="67" height="66" fill="white" transform="translate(29 30)"/>
</clipPath>
</defs>
</svg>
