<svg width="127" height="126" viewBox="0 0 127 126" fill="none" xmlns="http://www.w3.org/2000/svg">
<circle cx="63.2031" cy="63" r="63" fill="#323232"/>
<g clip-path="url(#clip0_1742_300)">
<g filter="url(#filter0_d_1742_300)">
<path d="M42.2527 88.6851C39.1984 87.2545 37.2151 85.1227 36.3961 82.0677C36.146 81.1322 36.0254 80.135 36.0236 79.166C35.9984 68.3625 35.9912 57.559 36.0128 46.7537C36.029 38.5277 41.5724 31.9121 49.7741 30.3053C50.7478 30.115 51.7593 30.0375 52.7546 30.034C59.5758 30.0111 66.3971 29.9706 73.2166 30.034C81.3121 30.1098 87.9354 35.4534 89.6038 43.2071C89.872 44.458 89.962 45.7653 89.9655 47.0462C89.9925 57.5413 89.9422 68.0348 89.9997 78.5299C90.0249 83.1283 88.1531 86.5233 83.677 88.7397C84.2926 89.2559 84.8793 89.6876 85.394 90.1915C86.8807 91.6485 86.9383 93.6711 85.565 95.0136C84.1882 96.3614 82.1274 96.305 80.6354 94.8585C78.9327 93.2077 77.2571 91.5287 75.5347 89.8972C75.2701 89.647 74.8166 89.4585 74.4494 89.4568C66.8129 89.4321 59.1745 89.4321 51.5379 89.4568C51.1725 89.4585 50.7208 89.6488 50.4544 89.9008C48.6762 91.5851 46.952 93.3257 45.1792 95.0188C44.0849 96.0636 42.6091 96.2733 41.315 95.6513C40.0821 95.0594 39.2578 93.7891 39.4846 92.4272C39.6088 91.6872 40.0354 90.942 40.4979 90.3218C40.9497 89.7158 41.621 89.2612 42.2527 88.6851ZM62.9955 66.3082C66.2063 66.3082 69.419 66.3117 72.6298 66.3064C77.0177 66.2994 79.856 63.5368 79.8632 59.2609C79.8704 55.1629 79.8704 51.0649 79.8632 46.9669C79.856 42.7209 77.0249 39.9319 72.7054 39.9266C66.2297 39.9178 59.754 39.9178 53.2783 39.9266C48.9624 39.9337 46.1313 42.7244 46.1241 46.9704C46.1169 51.0684 46.1169 55.1664 46.1241 59.2644C46.1313 63.5034 48.9696 66.2958 53.2819 66.3064C56.5198 66.3152 59.7576 66.3082 62.9955 66.3082ZM73.1122 76.1902C73.0942 77.9979 74.5862 79.4919 76.4454 79.5289C78.2524 79.5659 79.8416 78.0384 79.856 76.2554C79.8704 74.4548 78.3532 72.945 76.512 72.9273C74.6618 72.9115 73.1302 74.3808 73.1122 76.1902ZM52.8752 76.2167C52.8662 74.402 51.3489 72.9256 49.4987 72.9291C47.6539 72.9326 46.1277 74.4284 46.1313 76.2308C46.1349 78.0278 47.6683 79.5254 49.5131 79.5307C51.3381 79.5359 52.8842 78.012 52.8752 76.2167Z" stroke="white" stroke-width="3" shape-rendering="crispEdges"/>
</g>
</g>
<defs>
<filter id="filter0_d_1742_300" x="30.5" y="28.5" width="65" height="77" filterUnits="userSpaceOnUse" color-interpolation-filters="sRGB">
<feFlood flood-opacity="0" result="BackgroundImageFix"/>
<feColorMatrix in="SourceAlpha" type="matrix" values="0 0 0 0 0 0 0 0 0 0 0 0 0 0 0 0 0 0 127 0" result="hardAlpha"/>
<feOffset dy="4"/>
<feGaussianBlur stdDeviation="2"/>
<feComposite in2="hardAlpha" operator="out"/>
<feColorMatrix type="matrix" values="0 0 0 0 0 0 0 0 0 0 0 0 0 0 0 0 0 0 0.25 0"/>
<feBlend mode="normal" in2="BackgroundImageFix" result="effect1_dropShadow_1742_300"/>
<feBlend mode="normal" in="SourceGraphic" in2="effect1_dropShadow_1742_300" result="shape"/>
</filter>
<clipPath id="clip0_1742_300">
<rect width="72" height="72" fill="white" transform="translate(27.2031 27)"/>
</clipPath>
</defs>
</svg>
