<svg width="126" height="126" viewBox="0 0 126 126" fill="none" xmlns="http://www.w3.org/2000/svg">
<circle cx="63" cy="63" r="63" fill="#323232"/>
<g clip-path="url(#clip0_1030_3)">
<path d="M41.1942 106C40.3681 105.614 39.9048 104.93 39.5085 104.132C35.5151 96.0987 31.5006 88.0783 27.4914 80.0544C26.5825 78.2335 26.8978 77.294 28.728 76.3773C29.984 75.748 31.247 75.1329 32.4941 74.4895C34.3754 73.52 36.2796 73.3825 38.2543 74.211C38.4551 74.2956 38.8338 74.1845 39.0223 74.0312C40.8543 72.5346 42.5559 70.8547 44.4971 69.5221C49.5332 66.0707 56.6867 66.4391 61.4622 70.2307C63.9706 72.2226 63.9706 72.2226 67.1642 72.2226C69.8593 72.2226 72.5562 72.2349 75.2513 72.2191C78.341 72.2014 80.5499 73.52 81.7354 76.4285C81.7513 76.4672 81.7988 76.4937 82.0137 76.714C82.1441 76.499 82.241 76.2557 82.4065 76.0742C84.2191 74.1105 86.0264 72.1397 87.869 70.2025C90.3281 67.6166 93.6556 67.2817 96.4933 69.3247C97.7194 70.2078 98.4715 71.4258 98.8256 72.8942C98.8731 73.0951 98.9401 73.2908 98.9982 73.4882C98.9982 74.0047 98.9982 74.5212 98.9982 75.0359C98.7181 76.5166 98.0153 77.7787 97.1099 78.9738C94.0378 83.0246 90.9939 87.0983 87.9571 91.1754C84.7811 95.443 80.5464 97.5618 75.2337 97.5565C67.409 97.5495 59.5826 97.5548 51.758 97.5548C51.4815 97.5548 51.2049 97.5548 50.9354 97.5548C50.9019 97.6817 50.872 97.7469 50.8684 97.8139C50.7363 100.625 49.3148 102.534 46.8099 103.73C45.2968 104.451 43.8136 105.242 42.3181 106C41.9446 106 41.5694 106 41.1942 106ZM41.4338 77.3627C41.6205 77.7593 41.7156 77.9726 41.8196 78.1824C44.2364 83.0211 46.662 87.8562 49.0559 92.7055C49.3042 93.2079 49.5825 93.3489 50.1198 93.3471C58.487 93.3295 66.8542 93.3172 75.2196 93.3418C79.1372 93.3542 82.2374 91.8294 84.5626 88.6724C86.3559 86.238 88.1861 83.8319 90.0004 81.4117C91.4343 79.4991 92.8858 77.5989 94.2932 75.667C95.2832 74.3079 94.6367 72.5787 93.0531 72.2631C92.1512 72.0851 91.4801 72.4993 90.8865 73.141C87.9712 76.2892 85.0435 79.4251 82.1212 82.5663C81.0026 83.7685 79.6956 84.7344 78.0204 84.7715C73.6184 84.8666 69.2128 84.8666 64.809 84.8596C63.9072 84.8578 63.1761 84.1245 62.9806 83.2643C62.6653 81.8665 63.6447 80.6784 65.1596 80.6714C68.6051 80.6572 72.0506 80.6608 75.4944 80.6714C76.1814 80.6731 76.7961 80.5268 77.2894 80.0262C77.8865 79.4198 78.0732 78.5102 77.7297 77.7487C77.3457 76.8991 76.6658 76.4531 75.7322 76.4496C72.8257 76.4408 69.9104 76.2963 67.0162 76.4849C63.8614 76.6911 61.3582 75.6599 58.9274 73.6786C55.473 70.8618 51.4586 70.4828 47.5639 72.6562C45.3479 73.8937 43.4807 75.7604 41.4338 77.3627ZM31.9287 79.4991C35.5433 86.7316 39.1068 93.8618 42.7003 101.054C43.53 100.64 44.3015 100.259 45.0696 99.871C46.6813 99.0601 47.0231 98.0395 46.2216 96.4284C44.9057 93.7896 43.5864 91.1543 42.2687 88.5173C40.7309 85.4395 39.1984 82.3618 37.6554 79.2876C37.0476 78.0766 36.0083 77.5848 34.8915 78.0502C33.9033 78.4609 32.9644 78.9862 31.9287 79.4991Z" fill="white"/>
<path d="M78.4556 62.6774H47.2874C46.0437 62.6774 45.0309 61.6656 45.0309 60.4193V45.9932L45.4942 45.6776C45.5981 45.6071 45.6932 45.556 45.7637 45.519C45.7813 45.5102 45.8007 45.5014 45.8183 45.4908L62.8715 30.4424L79.9352 45.4996C79.9493 45.5084 79.9652 45.5155 79.981 45.5225C80.0515 45.5595 80.1484 45.6089 80.2505 45.6794L80.7121 45.9949V60.4158C80.7121 61.6656 79.6992 62.6774 78.4556 62.6774ZM47.1465 47.1407V60.4193C47.1465 60.4969 47.2099 60.5621 47.2891 60.5621H78.4573C78.5348 60.5621 78.6 60.4987 78.6 60.4193V47.1407C78.5859 47.1284 78.5718 47.116 78.556 47.1037L62.8732 33.2645L47.1993 47.0966C47.1799 47.1125 47.1641 47.1266 47.1465 47.1407ZM79.9564 45.5208L79.9599 45.5243C79.9581 45.5225 79.9564 45.5225 79.9564 45.5208ZM45.8024 45.5084C45.7989 45.5119 45.7954 45.5155 45.7919 45.5172L45.8024 45.5084ZM44.0973 43.7087C43.479 43.7087 42.8625 43.4566 42.4186 42.9613L40.7099 41.0487C39.993 40.1233 40.1022 38.7818 40.9864 37.9868L60.1728 21.0365C61.7089 19.6474 64.0411 19.6457 65.586 21.0453L84.76 37.9868C85.6848 38.8189 85.7623 40.2484 84.9326 41.1739L83.3279 42.9613C83.3244 42.9648 83.3226 42.9666 83.3191 42.9701L83.2768 43.0159C82.4383 43.8885 81.0485 43.9466 80.1431 43.1305L62.9683 27.971C62.9155 27.9234 62.8345 27.9234 62.7799 27.971L45.6034 43.1323C45.1718 43.5183 44.6345 43.7087 44.0973 43.7087ZM42.482 39.8677L43.9916 41.5476C44.0427 41.604 44.1307 41.611 44.1889 41.5617L44.1994 41.5511L61.3812 26.3846C62.232 25.6336 63.5144 25.6336 64.3652 26.3846L81.547 41.5493C81.5928 41.5899 81.6492 41.6004 81.6985 41.5828L81.7989 41.4947L83.3578 39.7584C83.4089 39.702 83.4054 39.6121 83.349 39.5592L64.1785 22.6194C63.4316 21.9443 62.3201 21.9443 61.582 22.6106L42.3904 39.5663C42.3428 39.6103 42.334 39.6914 42.3763 39.7496L42.4679 39.8412L42.482 39.8677Z" fill="white"/>
</g>
<defs>
<clipPath id="clip0_1030_3">
<rect width="72" height="86" fill="white" transform="translate(27 20)"/>
</clipPath>
</defs>
</svg>
